HIERARCHY
ROOT root
{
	OFFSET 0.000000 0.000000 0.000000
	CHANNELS 6 Xposition Yposition Zposition Zrotation Yrotation Xrotation
	JOINT lhip
	{
		OFFSET 0.058581 -0.082280 -0.017664
		CHANNELS 3 Zrotation Yrotation Xrotation
		JOINT lknee
		{
			OFFSET 0.043451 -0.386469 0.008037
			CHANNELS 3 Zrotation Yrotation Xrotation
			JOINT lankle
			{
				OFFSET -0.014790 -0.426874 -0.037428
				CHANNELS 3 Zrotation Yrotation Xrotation
				JOINT ltoe
				{
					OFFSET 0.041054 -0.060286 0.122042
					CHANNELS 3 Zrotation Yrotation Xrotation
					End Site
					{
						OFFSET 0.000000 0.000000 0.000000
					}
				}
			}
		}
	}
	JOINT rhip
	{
		OFFSET -0.060310 -0.090513 -0.013543
		CHANNELS 3 Zrotation Yrotation Xrotation
		JOINT rknee
		{
			OFFSET -0.043257 -0.383688 -0.004843
			CHANNELS 3 Zrotation Yrotation Xrotation
			JOINT rankle
			{
				OFFSET 0.019056 -0.420046 -0.034562
				CHANNELS 3 Zrotation Yrotation Xrotation
				JOINT rtoe
				{
					OFFSET -0.034840 -0.062106 0.130323
					CHANNELS 3 Zrotation Yrotation Xrotation
					End Site
					{
						OFFSET 0.000000 0.000000 0.000000
					}
				}
			}
		}
	}
	JOINT lowerback
	{
		OFFSET 0.004439 0.124404 -0.038385
		CHANNELS 3 Zrotation Yrotation Xrotation
		JOINT upperback
		{
			OFFSET 0.004488 0.137956 0.026820
			CHANNELS 3 Zrotation Yrotation Xrotation
			JOINT chest
			{
				OFFSET -0.002265 0.056032 0.002855
				CHANNELS 3 Zrotation Yrotation Xrotation
				JOINT lowerneck
				{
					OFFSET -0.013390 0.211636 -0.033468
					CHANNELS 3 Zrotation Yrotation Xrotation
					JOINT upperneck
					{
						OFFSET 0.010113 0.088937 0.050410
						CHANNELS 3 Zrotation Yrotation Xrotation
						End Site
						{
							OFFSET 0.000000 0.000000 0.000000
						}
					}
				}
				JOINT lclavicle
				{
					OFFSET 0.071702 0.114000 -0.018898
					CHANNELS 3 Zrotation Yrotation Xrotation
					JOINT lshoulder
					{
						OFFSET 0.122921 0.045205 -0.019046
						CHANNELS 3 Zrotation Yrotation Xrotation
						JOINT lelbow
						{
							OFFSET 0.255332 -0.015649 -0.022946
							CHANNELS 3 Zrotation Yrotation Xrotation
							JOINT lwrist
							{
								OFFSET 0.265709 0.012698 -0.007375
								CHANNELS 3 Zrotation Yrotation Xrotation
								End Site
								{
									OFFSET 0.000000 0.000000 0.000000
								}
							}
						}
					}
				}
				JOINT rclavicle
				{
					OFFSET -0.082954 0.112472 -0.023707
					CHANNELS 3 Zrotation Yrotation Xrotation
					JOINT rshoulder
					{
						OFFSET -0.113228 0.046853 -0.008472
						CHANNELS 3 Zrotation Yrotation Xrotation
						JOINT relbow
						{
							OFFSET -0.260127 -0.014369 -0.031269
							CHANNELS 3 Zrotation Yrotation Xrotation
							JOINT rwrist
							{
								OFFSET -0.269108 0.006794 -0.006027
								CHANNELS 3 Zrotation Yrotation Xrotation
								End Site
								{
									OFFSET 0.000000 0.000000 0.000000
								}
							}
						}
					}
				}
			}
		}
	}
}
MOTION
Frames: 14
Frame Time: 0.033333
-0.016072 -0.492530 1.000916 101.081834 -0.824570 84.244022 -2.880715 -1.348347 5.380234 -2.983316 -14.082250 9.336533 0.779019 5.130488 -15.932405 0.000000 -0.000000 0.000000 1.451978 -3.020824 3.929838 0.858062 -4.767848 13.876097 1.228836 -10.708799 -15.626752 0.000000 -0.000000 0.000000 1.180667 -2.029040 10.436860 1.152421 -4.524917 -0.765904 -0.678273 -2.701187 -0.423211 -1.125439 -1.985771 -3.366598 -3.529757 -7.433093 11.903283 -30.378570 -4.216545 3.567731 -57.322146 -9.709486 13.037586 5.458532 -27.476815 11.163672 -4.031237 -4.727546 -1.857190 30.301284 5.805895 3.679725 57.203986 1.710006 14.271374 -10.683626 20.208618 -3.939906 5.841476 3.768436 -6.077096 
-0.020436 -0.490789 1.001036 104.510127 -0.893125 84.461256 -2.689662 -1.348463 4.477727 -3.223800 -13.303049 10.068882 -0.541004 5.228055 -18.171869 0.000000 -0.000000 0.000000 1.252606 -3.927910 3.828933 0.897130 -6.263161 13.414043 1.203377 -11.509904 -15.502003 0.000000 -0.000000 0.000000 1.772573 -1.902679 11.012102 0.830190 -4.191509 -1.217551 -0.735291 -2.497702 -0.289016 -1.793338 -0.514671 -3.662560 -3.860320 -5.687914 13.462731 -30.346152 -4.469489 3.483319 -57.727623 -10.184652 12.982305 5.335475 -28.414519 11.015442 -3.426675 -4.956978 -2.436043 30.145610 5.734641 4.301838 57.016249 1.487294 14.386377 -10.946266 21.363155 -3.853160 5.285912 3.830377 -5.827097 
-0.025257 -0.488610 1.001404 107.602752 -1.005164 84.658097 -2.572631 -0.855355 2.988744 -3.221670 -9.619346 12.495056 0.650907 7.662961 -20.167659 0.000000 -0.000000 0.000000 1.199950 -4.518228 3.304479 0.539716 -7.443787 13.670890 1.131137 -12.570800 -15.668904 0.000000 -0.000000 0.000000 2.168367 -1.541095 11.717954 0.573546 -3.634381 -1.782923 -0.655681 -2.315758 0.135247 -2.161392 0.671529 -3.466104 -4.132716 -3.444619 14.099009 -30.360309 -4.675398 3.313330 -58.171148 -10.459037 12.808786 5.313445 -29.866613 11.082996 -3.548387 -5.030811 -3.102491 29.737486 6.086674 4.783311 56.563793 1.748158 14.646972 -10.604051 21.381102 -3.653547 4.785388 4.043079 -5.436553 
-0.029761 -0.485065 1.001299 112.224203 -1.281419 84.175434 -2.012157 1.099819 1.432282 -1.992768 -1.185832 17.303635 3.473339 12.179595 -20.454649 0.000000 -0.000000 0.000000 0.662727 -5.910207 3.820670 0.462359 -9.512308 13.517191 0.522789 -13.789775 -15.723659 0.000000 -0.000000 0.000000 2.155444 -1.446059 12.352093 0.374365 -3.420453 -1.505960 -0.567813 -2.094740 0.702008 -2.834638 1.218888 -3.305736 -4.086945 -0.845593 14.488882 -30.181554 -4.982119 3.768240 -58.345857 -11.078643 12.019253 4.963618 -31.648245 11.982921 -3.989541 -4.949022 -3.189989 29.204530 6.373226 4.801429 56.023963 2.151668 14.631775 -9.973676 21.459520 -2.769783 4.960847 3.741388 -4.326191 
-0.032690 -0.482873 1.000745 114.960292 -1.552212 84.093350 -1.569668 2.179060 0.989055 -1.726228 2.362241 19.028545 4.608820 13.869065 -18.993960 0.000000 -0.000000 0.000000 0.228545 -6.642760 4.013289 0.318438 -10.858273 13.248302 0.006593 -14.223749 -16.059067 0.000000 -0.000000 0.000000 1.750356 -1.259418 12.227141 0.365309 -3.348845 -1.034960 -0.450277 -1.950449 0.888833 -2.849280 1.617833 -2.748192 -3.860966 0.280892 14.869457 -30.008306 -5.372425 4.260557 -58.267383 -11.381723 11.883369 4.812389 -32.371991 12.190471 -4.493401 -5.165331 -3.395213 29.135354 6.564811 5.405483 55.654656 2.664562 14.492928 -10.246104 21.534339 -3.094403 5.085714 3.599454 -4.152212 
-0.035066 -0.479137 1.000884 118.674976 -1.369066 83.798488 -0.204008 4.531212 1.261080 -1.613381 6.238679 19.022721 4.967154 14.517676 -16.002011 0.000000 -0.000000 0.000000 -0.229561 -8.310528 4.303288 0.460902 -12.985936 13.504654 -0.475667 -14.448120 -14.802657 0.000000 -0.000000 0.000000 1.907992 -1.319242 12.487009 0.306107 -3.168588 -0.986932 -0.425169 -1.774739 0.714604 -2.924482 1.945271 -1.656145 -3.540120 1.443863 15.397401 -30.057022 -5.104096 4.490487 -58.023157 -11.147041 11.292526 3.588018 -33.003346 13.149778 -4.630684 -5.068956 -3.174743 28.956179 6.277034 5.649240 54.926290 2.829735 14.001783 -9.480605 21.240251 -2.659678 4.932878 3.575396 -3.367643 
-0.037474 -0.474599 1.000060 122.353215 -1.399487 83.711593 0.625570 6.251306 2.257007 -1.627171 8.128280 16.919861 3.557828 14.002234 -12.839157 0.000000 -0.000000 0.000000 -0.646818 -8.950115 4.479986 0.361848 -15.095157 13.807991 -0.724174 -15.084594 -14.838862 0.000000 -0.000000 0.000000 1.834416 -1.363685 12.082840 0.175376 -2.990845 -0.563267 -0.520730 -1.750045 0.560568 -2.718301 2.162675 -0.436451 -3.435773 2.086289 15.765624 -29.965165 -4.751366 4.689051 -57.715934 -10.981597 11.053511 3.076147 -33.108700 13.901847 -5.409376 -5.288019 -2.046894 28.617107 5.977320 5.851973 54.705297 3.080845 13.497255 -9.277856 21.060802 -3.415494 4.746314 3.901870 -3.116445 
-0.041367 -0.469280 0.998669 126.338864 -1.419907 83.746729 0.733290 6.294411 3.311322 -2.625596 5.911246 14.226774 2.168148 12.104163 -12.654640 0.000000 -0.000000 0.000000 -1.102664 -9.967645 4.367447 0.103412 -17.184489 13.968179 -0.395607 -16.374292 -15.430705 0.000000 -0.000000 0.000000 1.852754 -1.617651 11.975775 0.031765 -3.078848 -0.495085 -0.518865 -1.794670 0.625879 -2.623651 2.632356 0.183910 -3.127337 2.458846 15.818147 -29.871931 -4.221227 4.672224 -57.509750 -10.683063 10.865028 2.855424 -32.968869 14.292220 -5.313924 -5.238885 -1.932107 28.016999 5.832716 5.638994 54.412590 3.173323 13.323300 -8.852111 20.889428 -3.168981 4.872367 3.859311 -3.212275 
-0.045001 -0.463433 0.997547 130.378475 -1.358992 83.893011 0.621877 6.063974 3.321296 -2.847922 4.079403 12.998649 1.855768 10.493525 -12.441169 0.000000 -0.000000 0.000000 -1.055685 -9.933841 4.100376 -0.441557 -17.879081 15.143497 -0.567306 -17.940044 -15.661453 0.000000 -0.000000 0.000000 1.985959 -1.665379 11.671514 0.077498 -3.011599 -0.641804 -0.646773 -2.070921 0.889109 -2.265808 2.809599 0.726462 -3.646492 2.225514 16.272612 -30.198166 -3.786396 4.988574 -57.027396 -10.629032 10.651776 3.147082 -32.457957 14.397202 -4.767297 -4.892191 -1.499189 28.039534 5.229003 5.479072 53.797631 3.120806 13.078278 -9.248058 21.027775 -3.650285 4.655513 3.690993 -3.603502 
-0.051670 -0.455369 0.997978 135.038342 -1.542363 83.614127 -0.550582 4.778523 3.591738 -2.543922 0.702932 12.462294 1.995459 9.242138 -12.126849 0.000000 -0.000000 0.000000 -1.928332 -10.743985 3.482772 -1.477437 -19.097050 17.552255 -0.439443 -19.302744 -15.068138 0.000000 -0.000000 0.000000 2.165343 -1.450116 12.196302 -0.130975 -2.918070 -0.941616 -0.815708 -2.254621 1.005970 -2.403386 2.789832 1.165628 -3.706842 2.397770 16.672335 -30.204322 -3.644703 4.706292 -56.864942 -10.374796 10.302423 3.775394 -29.615008 13.423105 -4.355956 -5.076478 -2.457569 28.338862 4.794866 5.330474 53.264780 3.008344 12.922754 -10.007399 20.661362 -4.914892 3.443419 3.718535 -3.765458 
-0.057261 -0.448395 0.998010 138.690801 -1.582537 83.224440 -1.563826 4.048050 4.140137 -2.208769 -1.081698 11.458230 2.372191 9.018883 -12.164631 0.000000 -0.000000 0.000000 -2.665764 -10.598708 3.161517 -2.095272 -19.488522 19.924560 -0.302060 -20.338669 -15.226859 0.000000 -0.000000 0.000000 2.486816 -1.130494 12.209795 -0.269505 -2.741707 -0.456500 -0.945626 -2.450341 1.260182 -2.358832 2.840108 1.740920 -4.080723 2.401317 16.210834 -29.866576 -3.869235 4.715215 -57.017168 -10.366060 10.025336 4.992270 -27.551884 12.289840 -4.665550 -4.323871 -3.012449 27.915384 4.713210 5.303108 53.563891 3.192763 12.611607 -10.730941 20.269273 -6.254135 3.331088 3.452040 -4.557685 
-0.063485 -0.442163 0.998059 141.776712 -1.432310 83.103384 -1.938972 3.825787 4.518784 -2.455879 -2.411095 10.423448 2.615909 8.622339 -11.902149 0.000000 -0.000000 0.000000 -3.050740 -10.166097 2.438581 -2.926270 -20.097898 22.271420 0.266225 -20.764377 -15.344109 0.000000 -0.000000 0.000000 3.064717 -1.050715 12.550864 -0.401423 -2.234195 -0.564142 -1.111417 -2.184019 1.311947 -2.734998 2.933629 2.337641 -4.030001 2.389009 16.053117 -29.769422 -3.794850 4.342285 -56.887190 -10.179256 9.706851 5.752398 -25.308242 11.409135 -4.248445 -4.091953 -2.804965 27.769137 4.682850 5.487750 53.537524 3.062542 12.386103 -11.024201 20.070302 -7.202632 2.948555 3.517683 -5.190519 
-0.069653 -0.436450 0.997555 145.013783 -1.249740 83.079462 -2.303229 3.533920 4.777013 -2.495161 -4.168733 9.565727 3.017826 8.040156 -11.731011 0.000000 -0.000000 0.000000 -3.579554 -10.920540 1.685803 -3.713338 -21.134712 24.791395 0.076052 -21.269087 -14.687213 0.000000 -0.000000 0.000000 3.488512 -0.847394 12.571697 -0.452621 -1.845869 -0.465744 -1.182505 -2.050873 1.354895 -2.593747 2.813198 2.852333 -4.243175 2.533269 16.178968 -29.591718 -3.740500 4.196558 -56.426929 -9.897814 9.347379 6.150695 -23.906577 10.857974 -4.879959 -3.706789 -2.801076 27.753904 4.732348 5.621084 53.376560 3.060699 12.200110 -11.264100 20.046008 -8.021783 3.427289 3.421438 -5.345826 
-0.075172 -0.431205 0.996524 148.202119 -1.049455 83.007099 -2.225927 3.123871 5.013603 -3.074100 -6.445466 9.089977 3.143536 7.114895 -11.828880 0.000000 -0.000000 0.000000 -4.063330 -11.235920 0.880505 -4.403717 -21.833832 27.538801 0.070586 -22.074533 -14.272787 0.000000 -0.000000 0.000000 3.711402 -0.796675 12.550079 -0.373683 -1.538212 -0.298480 -1.173101 -2.061742 1.304698 -2.513417 3.078529 3.573970 -4.291408 2.824949 16.350332 -29.318387 -3.370664 4.507014 -55.395554 -9.457227 8.938229 5.800597 -24.001481 10.750189 -5.117019 -3.428028 -3.442365 27.863527 4.940604 5.667516 52.736203 3.089790 12.165271 -10.604213 20.349732 -7.899918 3.354583 3.412065 -5.397267 
